<?xml version="1.0" standalone="no"?>
<!DOCTYPE svg PUBLIC "-//W3C//DTD SVG 20010904//EN"
 "http://www.w3.org/TR/2001/REC-SVG-20010904/DTD/svg10.dtd">
<svg version="1.0" xmlns="http://www.w3.org/2000/svg"
 width="1280.000000pt" height="1280.000000pt" viewBox="0 0 1280.000000 1280.000000"
 preserveAspectRatio="xMidYMid meet">

<g transform="translate(0.000000,1280.000000) scale(0.100000,-0.100000)"
fill="#000000" stroke="none">
<path d="M3622 10677 c-6 -7 -135 -332 -287 -722 -152 -391 -292 -748 -310
-795 -18 -47 -54 -138 -79 -202 -25 -65 -66 -169 -90 -230 -127 -324 -337
-862 -491 -1258 -95 -245 -178 -456 -184 -470 -6 -14 -141 -362 -302 -775
-160 -412 -317 -817 -349 -900 -33 -82 -89 -226 -125 -320 -37 -93 -71 -175
-77 -182 -8 -10 -117 -13 -482 -15 l-471 -3 -3 -58 c-2 -32 1 -64 7 -70 7 -9
1447 -12 5982 -12 l5973 0 9 36 c5 20 4 51 0 70 l-9 34 -2404 3 c-1745 1
-2407 5 -2416 13 -37 31 -146 450 -193 739 -108 668 -90 1605 45 2320 166 879
531 1578 1022 1958 171 131 401 258 591 326 217 78 506 126 756 126 621 0
1126 -197 1540 -601 317 -309 563 -752 755 -1359 34 -107 67 -211 74 -230 l12
-35 71 -3 c56 -2 72 0 76 12 c4 9 -7 224 -24 478 -43 684 -58 916 -74 1193 -8
138 -17 277 -20 310 -3 33 -12 186 -20 339 -11 199 -19 282 -28 288 -17 11
-139 10 -156 -1 -8 -5 -25 -47 -38 -93 -32 -111 -102 -251 -158 -315 -50 -57
-140 -107 -212 -118 -77 -12 -144 12 -389 136 -500 256 -860 362 -1317 389
-561 34 -1123 -81 -1637 -336 -361 -179 -635 -377 -925 -668 -421 -423 -737
-947 -949 -1578 -171 -507 -249 -1002 -250 -1583 0 -559 75 -1045 238 -1534
30 -88 51 -162 48 -165 -8 -9 -295 -7 -308 2 -6 4 -36 72 -67 152 -30 80 -91
240 -135 355 -44 116 -216 566 -382 1000 -166 435 -330 864 -365 955 -35 91
-91 237 -125 325 -33 88 -94 248 -135 355 -40 107 -112 296 -160 420 -47 124
-191 502 -320 840 -129 338 -292 766 -363 950 -71 184 -144 374 -162 422 -24
65 -37 88 -53 92 -42 11 -144 6 -155 -7z m-183 -1815 c5 -10 41 -101 80 -202
364 -954 452 -1183 818 -2135 30 -77 74 -192 98 -255 24 -63 69 -180 100 -260
68 -174 90 -239 83 -245 -5 -5 -2419 -8 -2424 -2 -4 4 47 136 301 782 37 94
91 231 120 305 29 74 82 209 118 300 104 263 233 592 297 755 118 300 288 733
335 853 26 67 52 122 56 122 5 0 13 -8 18 -18z m1346 -3539 c51 -128 185 -488
185 -499 0 -12 -226 -14 -1570 -14 -1554 0 -1570 0 -1570 20 0 21 176 477 193
498 7 9 296 12 1382 12 1298 0 1373 -1 1380 -17z"/>
<path d="M10431 4467 c-77 -34 -90 -50 -44 -55 15 -2 31 -9 35 -15 4 -7 8
-177 8 -378 0 -342 -1 -367 -18 -382 -10 -10 -26 -17 -35 -17 -9 0 -17 -7 -17
-15 0 -13 21 -15 125 -15 104 0 125 2 125 15 0 8 -8 15 -18 15 -10 0 -27 6
-38 14 -18 14 -19 33 -24 437 -3 268 -9 423 -15 425 -5 2 -43 -11 -84 -29z"/>
<path d="M11047 4482 c-36 -40 -10 -112 40 -112 50 0 73 85 31 114 -29 21 -51
20 -71 -2z"/>
<path d="M7789 4470 c-107 -19 -223 -109 -273 -212 -146 -303 3 -654 290 -684
75 -8 170 15 229 56 45 31 125 132 125 157 0 23 -15 12 -59 -44 -57 -73 -115
-105 -202 -111 -63 -4 -75 -2 -133 27 -73 36 -113 82 -148 171 -32 80 -32 283
0 387 27 88 72 149 137 186 45 25 58 27 127 25 66 -3 82 -7 119 -33 51 -36 89
-89 114 -157 9 -26 21 -48 26 -48 9 0 4 207 -7 258 -5 27 -24 29 -31 2 -8 -32
-40 -34 -102 -6 -64 29 -144 39 -212 26z"/>
<path d="M10786 4361 c-5 -8 -22 -41 -38 -72 -16 -32 -50 -76 -75 -98 -48 -43
-49 -61 -2 -61 l29 0 0 -202 c1 -112 5 -223 9 -248 10 -47 43 -85 86 -96 39
-10 97 25 124 74 28 53 21 65 -18 28 -19 -18 -37 -26 -52 -24 -44 6 -49 37
-46 258 l2 205 57 5 c62 6 73 12 65 34 -4 10 -24 16 -64 18 l-58 3 -5 95 c-3
63 -8 90 -14 81z"/>
<path d="M8392 4177 c-56 -21 -99 -64 -134 -134 -30 -62 -33 -75 -33 -163 0
-84 3 -102 28 -152 102 -207 348 -205 442 4 37 83 45 192 20 272 -22 68 -83
141 -140 167 -46 21 -133 24 -183 6z m141 -57 c56 -49 80 -118 85 -243 5 -127
-7 -183 -50 -224 -23 -22 -39 -28 -74 -28 -40 0 -50 5 -84 41 -51 55 -80 148
-80 258 0 104 14 152 55 193 45 45 99 46 148 3z"/>
<path d="M8830 4160 c-69 -30 -87 -50 -46 -50 50 0 56 -26 56 -240 0 -209 -6
-240 -48 -250 -13 -3 -23 -9 -23 -15 1 -6 52 -11 127 -13 99 -2 125 0 122 10
-3 7 -13 15 -24 17 -10 1 -27 10 -36 19 -16 13 -18 37 -18 207 l0 191 28 27
c15 14 44 33 66 42 48 20 92 6 108 -34 14 -33 22 -343 11 -396 -7 -32 -15 -42
-39 -50 -64 -21 -40 -30 85 -33 130 -3 169 7 108 27 -19 7 -39 20 -43 29 -5 9
-11 114 -14 232 -5 200 -7 218 -27 251 -26 41 -59 59 -110 59 -45 0 -114 -39
-145 -83 l-23 -32 -5 55 c-6 68 -18 71 -110 30z"/>
<path d="M9450 4172 c-71 -35 -104 -157 -61 -228 11 -18 59 -55 119 -93 56
-34 108 -71 117 -83 23 -35 20 -100 -8 -126 -23 -22 -40 -26 -91 -24 -39 3
-110 76 -122 128 -5 20 -15 39 -22 42 -9 3 -12 -22 -12 -97 l0 -100 33 1 c17
0 60 -5 94 -12 53 -11 68 -10 110 4 80 27 123 85 123 167 0 83 -37 123 -182
203 -78 42 -108 76 -108 120 1 40 20 64 59 76 67 19 130 -22 156 -101 9 -27
21 -49 26 -49 5 0 9 43 9 95 0 93 -4 107 -28 83 -9 -9 -21 -9 -50 0 -56 17
-122 15 -162 -6z"/>
<path d="M11035 4164 c-33 -15 -66 -31 -72 -36 -18 -15 -7 -26 20 -21 47 9 52
-13 52 -226 0 -229 -4 -249 -45 -258 -17 -3 -30 -12 -30 -19 0 -11 50 -13 266
-13 198 0 265 2 262 11 -3 7 -17 15 -33 20 -15 4 -32 13 -36 20 -5 7 -9 99 -9
205 l0 192 33 31 c41 39 92 54 126 37 48 -23 56 -56 55 -247 0 -209 -3 -227
-46 -238 -17 -4 -33 -13 -36 -20 -3 -9 30 -12 127 -12 136 0 159 8 96 34 -19
8 -36 16 -36 18 -1 2 -5 102 -8 223 -6 178 -10 226 -24 252 -51 96 -152 98
-249 5 l-38 -36 0 47 c0 62 -14 67 -98 32 -98 -41 -114 -59 -54 -60 45 0 52
-30 52 -226 0 -223 -3 -237 -48 -256 -29 -12 -44 -13 -73 -4 -56 17 -61 42
-59 303 2 288 3 268 -17 268 -10 -1 -45 -12 -78 -26z"/>
<path d="M11980 4174 c-76 -33 -120 -102 -120 -188 0 -68 10 -95 54 -144 l36
-39 -31 -32 c-58 -61 -70 -137 -25 -154 24 -10 20 -23 -28 -81 -76 -94 -69
-136 34 -188 46 -24 65 -28 140 -28 106 0 164 18 223 70 103 91 105 214 5 266
-20 10 -75 18 -165 23 -161 10 -178 18 -150 76 l17 36 60 -7 c86 -9 140 8 190
62 21 23 42 54 46 68 5 23 1 113 -7 161 -3 16 1 19 20 17 43 -6 73 7 69 31 -3
20 -10 23 -78 28 -41 3 -92 13 -112 22 -46 21 -131 21 -178 1z m133 -34 c41
-32 60 -96 56 -189 -4 -71 -7 -84 -30 -107 -19 -18 -38 -26 -64 -27 -32 -1
-43 5 -71 37 -38 44 -49 93 -42 188 4 53 9 65 36 89 38 34 79 37 115 9z m5
-559 c143 -10 182 -23 182 -64 0 -36 -35 -82 -76 -103 -59 -28 -213 -26 -271
4 -60 31 -69 83 -26 148 17 27 9 26 191 15z"/>
<path d="M9752 4168 c2 -6 19 -16 36 -20 21 -6 33 -16 36 -31 3 -12 7 -110 9
-217 3 -172 6 -201 24 -242 26 -57 61 -81 117 -80 55 0 98 22 132 67 14 19 30
35 35 35 4 0 9 -24 11 -52 4 -62 6 -63 108 -18 72 32 87 50 41 50 -16 0 -33 6
-38 13 -4 6 -10 122 -13 257 l-5 245 -88 3 c-69 2 -88 0 -85 -10 3 -7 13 -15
24 -17 10 -1 27 -10 37 -19 15 -13 17 -37 17 -208 l0 -192 -41 -35 c-46 -40
-79 -49 -121 -35 -49 17 -53 35 -58 283 l-5 230 -88 3 c-68 2 -88 0 -85 -10z"/>
</g>
</svg>
